<svg xmlns="http://www.w3.org/2000/svg" viewBox="0 0 1200 630" width="1200" height="630" role="img" aria-label="Vite + React + Tailwind - vite-react-tailwind-lint starter">
  <defs>
    <linearGradient id="bg" x1="0%" y1="100%" x2="100%" y2="0%">
      <stop offset="0%" stop-color="#BAE6FD"/>
      <stop offset="33%" stop-color="#7DD3FC"/>
      <stop offset="66%" stop-color="#38BDF8"/>
      <stop offset="100%" stop-color="#0EA5E9"/>
    </linearGradient>
    <linearGradient id="vmark" x1="-.828%" x2="57.636%" y1="7.652%" y2="78.411%">
      <stop offset="0%" stop-color="#41D1FF"/>
      <stop offset="100%" stop-color="#BD34FE"/>
    </linearGradient>
    <linearGradient id="vbolt" x1="43.376%" x2="50.316%" y1="2.242%" y2="89.03%">
      <stop offset="0%" stop-color="#FFEA83"/>
      <stop offset="8.333%" stop-color="#FFDD35"/>
      <stop offset="100%" stop-color="#FFA800"/>
    </linearGradient>
    <filter id="soft" x="-20%" y="-20%" width="140%" height="140%">
      <feDropShadow dx="0" dy="6" stdDeviation="10" flood-color="#000" flood-opacity="0.28"/>
    </filter>
    <filter id="text-soft" x="-20%" y="-20%" width="140%" height="140%">
      <feDropShadow dx="0" dy="2" stdDeviation="4" flood-color="#000" flood-opacity="0.35"/>
    </filter>
  </defs>
  <rect width="1200" height="630" fill="url(#bg)"/>
  <text x="600" y="172" text-anchor="middle" fill="#ffffff"
        font-family="-apple-system, BlinkMacSystemFont, 'Segoe UI', Inter, Helvetica, Arial, sans-serif"
        font-size="78" font-weight="800" letter-spacing="-1.6" filter="url(#text-soft)">Vite + React + Tailwind</text>

  <g transform="translate(300 360) scale(0.55) translate(-128 -128)" filter="url(#soft)">
    <path fill="url(#vmark)" d="M255.153 37.938L134.897 252.976c-2.483 4.44-8.862 4.466-11.382.048L.875 37.958c-2.746-4.814 1.371-10.646 6.827-9.67l120.385 21.517a6.537 6.537 0 0 0 2.322-.004l117.867-21.483c5.438-.991 9.574 4.796 6.877 9.62Z"/>
    <path fill="url(#vbolt)" d="M185.432.063L96.44 17.501a3.268 3.268 0 0 0-2.634 3.014l-5.474 92.456a3.268 3.268 0 0 0 3.997 3.378l24.777-5.718c2.318-.535 4.413 1.507 3.936 3.838l-7.361 36.047c-.495 2.426 1.782 4.5 4.151 3.78l15.304-4.649c2.372-.72 4.652 1.36 4.15 3.788l-11.698 56.621c-.732 3.542 3.979 5.473 5.943 2.437l1.313-2.028l72.516-144.72c1.215-2.423-.88-5.186-3.54-4.672l-25.505 4.922c-2.396.462-4.435-1.77-3.759-4.114l16.646-57.705c.677-2.35-1.37-4.583-3.769-4.113Z"/>
  </g>

  <g transform="translate(600 360)" stroke="#FFFFFF" stroke-width="8" fill="none" filter="url(#soft)">
    <ellipse cx="0" cy="0" rx="92" ry="36"/>
    <ellipse cx="0" cy="0" rx="92" ry="36" transform="rotate(60)"/>
    <ellipse cx="0" cy="0" rx="92" ry="36" transform="rotate(120)"/>
    <circle cx="0" cy="0" r="14" fill="#FFFFFF" stroke="none"/>
  </g>

  <g transform="translate(900 360) scale(3.6) translate(-27 -16.2)" filter="url(#soft)">
    <path fill-rule="evenodd" clip-rule="evenodd" fill="#FFFFFF" d="M27 0C19.8 0 15.3 3.6 13.5 10.8C16.2 7.2 19.35 5.85 22.95 6.75C25.004 7.263 26.472 8.754 28.097 10.404C30.744 13.094 33.808 16.2 40.5 16.2C47.7 16.2 52.2 12.6 54 5.4C51.3 9 48.15 10.35 44.55 9.45C42.496 8.937 41.028 7.446 39.403 5.796C36.756 3.106 33.692 0 27 0ZM13.5 16.2C6.3 16.2 1.8 19.8 0 27C2.7 23.4 5.85 22.05 9.45 22.95C11.504 23.464 12.972 24.954 14.597 26.604C17.244 29.294 20.308 32.4 27 32.4C34.2 32.4 38.7 28.8 40.5 21.6C37.8 25.2 34.65 26.55 31.05 25.65C28.996 25.137 27.528 23.646 25.903 21.996C23.256 19.306 20.192 16.2 13.5 16.2Z"/>
  </g>

  <g fill="#ffffff" font-size="56" font-weight="300" text-anchor="middle"
     font-family="-apple-system, BlinkMacSystemFont, 'Segoe UI', Inter, Helvetica, Arial, sans-serif"
     filter="url(#text-soft)">
    <text x="450" y="378">+</text>
    <text x="750" y="378">+</text>
  </g>

  <text x="600" y="540" text-anchor="middle" fill="#ffffff"
        font-family="-apple-system, BlinkMacSystemFont, 'Segoe UI', Inter, Helvetica, Arial, sans-serif"
        font-size="32" font-weight="700" letter-spacing="0.4" filter="url(#text-soft)">vite-react-tailwind-lint</text>
</svg>
