<svg xmlns="http://www.w3.org/2000/svg" viewBox="0 0 1200 630" width="1200" height="630" font-family="ui-sans-serif, system-ui, -apple-system, Segoe UI, Roboto, Helvetica, Arial, sans-serif">
  <defs>
    <linearGradient id="viteBlue" x1="0" y1="0" x2="1" y2="1">
      <stop offset="0%" stop-color="#41d1ff"/>
      <stop offset="100%" stop-color="#bd34fe"/>
    </linearGradient>
    <linearGradient id="viteYellow" x1="0" y1="0" x2="0" y2="1">
      <stop offset="0%" stop-color="#ffea83"/>
      <stop offset="50%" stop-color="#ffdd35"/>
      <stop offset="100%" stop-color="#ffa800"/>
    </linearGradient>
    <radialGradient id="spotlight" cx="0.5" cy="0.5" r="0.42">
      <stop offset="0%" stop-color="#ffffff" stop-opacity="0.7"/>
      <stop offset="100%" stop-color="#ffffff" stop-opacity="0"/>
    </radialGradient>
  </defs>

  <rect width="1200" height="630" fill="#f1f5f9"/>
  <ellipse cx="600" cy="300" rx="520" ry="220" fill="url(#spotlight)"/>

  <g transform="translate(300,300) scale(0.34) translate(-205,-202)">
    <path d="M399.641 59.5246L215.643 388.545C211.844 395.338 202.084 395.378 198.228 388.618L10.5817 59.5563C6.38087 52.1896 12.6802 43.2665 21.0281 44.7586L205.223 77.6824C206.398 77.8924 207.601 77.8904 208.776 77.6763L389.119 44.7937C397.439 43.2768 403.768 52.1659 399.641 59.5246Z" fill="url(#viteBlue)"/>
    <path d="M292.965 1.5744L156.801 28.2552C154.563 28.6937 152.906 30.5903 152.771 32.8664L144.395 174.33C144.198 177.662 147.258 180.248 150.51 179.498L188.42 170.749C191.967 169.931 195.172 173.055 194.443 176.622L183.18 231.775C182.422 235.487 185.907 238.661 189.532 237.56L212.947 230.446C216.577 229.344 220.065 232.527 219.297 236.242L201.398 322.875C200.278 328.294 207.486 331.249 210.492 326.603L323.454 102.072C325.312 98.3645 322.108 94.137 318.036 94.9228L279.014 102.454C275.347 103.161 272.227 99.746 273.262 96.1583L298.731 7.86689C299.767 4.27314 296.636 0.855181 292.965 1.5744Z" fill="url(#viteYellow)"/>
  </g>

  <g transform="translate(600,300)" stroke="#61dafb" stroke-width="6" fill="none">
    <ellipse cx="0" cy="0" rx="80" ry="30"/>
    <ellipse cx="0" cy="0" rx="80" ry="30" transform="rotate(60)"/>
    <ellipse cx="0" cy="0" rx="80" ry="30" transform="rotate(120)"/>
    <circle cx="0" cy="0" r="12" fill="#61dafb"/>
  </g>

  <g transform="translate(900,300) scale(3.0) translate(-27,-16.2)">
    <path fill-rule="evenodd" clip-rule="evenodd" d="M27 0C19.8 0 15.3 3.6 13.5 10.8C16.2 7.2 19.35 5.85 22.95 6.75C25.004 7.263 26.472 8.754 28.097 10.404C30.744 13.094 33.808 16.2 40.5 16.2C47.7 16.2 52.2 12.6 54 5.4C51.3 9 48.15 10.35 44.55 9.45C42.496 8.937 41.028 7.446 39.403 5.796C36.756 3.106 33.692 0 27 0ZM13.5 16.2C6.3 16.2 1.8 19.8 0 27C2.7 23.4 5.85 22.05 9.45 22.95C11.504 23.464 12.972 24.954 14.597 26.604C17.244 29.294 20.308 32.4 27 32.4C34.2 32.4 38.7 28.8 40.5 21.6C37.8 25.2 34.65 26.55 31.05 25.65C28.996 25.137 27.528 23.646 25.903 21.996C23.256 19.306 20.192 16.2 13.5 16.2Z" fill="#38BDF8"/>
  </g>

  <g fill="#cbd5e1" font-size="40" font-weight="200" text-anchor="middle">
    <text x="450" y="316">+</text>
    <text x="750" y="316">+</text>
  </g>

  <text x="600" y="490" text-anchor="middle" font-size="52" font-weight="800" letter-spacing="-1.5" fill="#0f172a">vite-react-tailwind-lint</text>
</svg>
